<?xml version="1.0" encoding="utf-8"?>
<!-- Generator: Adobe Illustrator 15.0.0, SVG Export Plug-In . SVG Version: 6.00 Build 0)  -->
<!DOCTYPE svg PUBLIC "-//W3C//DTD SVG 1.1//EN" "http://www.w3.org/Graphics/SVG/1.1/DTD/svg11.dtd">
<svg version="1.1" id="Layer_1" xmlns="http://www.w3.org/2000/svg" xmlns:xlink="http://www.w3.org/1999/xlink" x="0px" y="0px"
	 width="1674px" height="2196px" viewBox="0 0 1674 2196" enable-background="new 0 0 1674 2196" xml:space="preserve">
<path fill="#7E421C" stroke="#000000" stroke-width="0.8537" stroke-miterlimit="10" d="M1566,180h108V0H0v180h108
	c9.941,0,18,8.059,18,18v1800c0,9.941-8.059,18-18,18H0v180h1674v-180h-108c-9.941,0-18-8.059-18-18V198
	C1548,188.059,1556.059,180,1566,180z M1413,585c0,24.853-20.147,45-45,45s-45-20.147-45-45s20.147-45,45-45S1413,560.147,1413,585z
	 M513,535.5c22.368,0,40.5,18.132,40.5,40.5s-18.132,40.5-40.5,40.5s-40.5-18.132-40.5-40.5S490.632,535.5,513,535.5z M477,450
	c0-19.883,16.117-36,36-36s36,16.117,36,36s-16.117,36-36,36S477,469.883,477,450z M1147.5,729c0,22.368-18.132,40.5-40.5,40.5
	s-40.5-18.132-40.5-40.5s18.132-40.5,40.5-40.5S1147.5,706.632,1147.5,729z M1143,666c0-19.883,16.117-36,36-36s36,16.117,36,36
	s-16.117,36-36,36S1143,685.883,1143,666z M1026,697.5c-22.368,0-40.5-18.132-40.5-40.5s18.132-40.5,40.5-40.5
	s40.5,18.132,40.5,40.5S1048.368,697.5,1026,697.5z M1107,418.5c-22.368,0-40.5-18.132-40.5-40.5s18.132-40.5,40.5-40.5
	s40.5,18.132,40.5,40.5S1129.368,418.5,1107,418.5z M1044,351c-19.883,0-36-16.117-36-36s16.117-36,36-36s36,16.117,36,36
	S1063.883,351,1044,351z M1044,400.5c22.368,0,40.5,18.132,40.5,40.5s-18.132,40.5-40.5,40.5s-40.5-18.132-40.5-40.5
	S1021.632,400.5,1044,400.5z M1026,522c24.853,0,45,20.147,45,45s-20.147,45-45,45s-45-20.147-45-45S1001.147,522,1026,522z
	 M936,531c-24.853,0-45-20.147-45-45s20.147-45,45-45s45,20.147,45,45S960.853,531,936,531z M864,522c19.883,0,36,16.117,36,36
	s-16.117,36-36,36s-36-16.117-36-36S844.117,522,864,522z M792,531c-24.853,0-45-20.147-45-45s20.147-45,45-45s45,20.147,45,45
	S816.853,531,792,531z M864,454.5c-22.368,0-40.5-18.132-40.5-40.5s18.132-40.5,40.5-40.5s40.5,18.132,40.5,40.5
	S886.368,454.5,864,454.5z M783,333c-24.853,0-45-20.147-45-45s20.147-45,45-45s45,20.147,45,45S807.853,333,783,333z M760.5,360
	c0,22.368-18.132,40.5-40.5,40.5s-40.5-18.132-40.5-40.5s18.132-40.5,40.5-40.5S760.5,337.632,760.5,360z M657,333
	c-24.853,0-45-20.147-45-45s20.147-45,45-45s45,20.147,45,45S681.853,333,657,333z M639,409.5c22.368,0,40.5,18.132,40.5,40.5
	s-18.132,40.5-40.5,40.5s-40.5-18.132-40.5-40.5S616.632,409.5,639,409.5z M603,499.5c22.368,0,40.5,18.132,40.5,40.5
	s-18.132,40.5-40.5,40.5s-40.5-18.132-40.5-40.5S580.632,499.5,603,499.5z M594,733.5c22.368,0,40.5,18.132,40.5,40.5
	s-18.132,40.5-40.5,40.5s-40.5-18.132-40.5-40.5S571.632,733.5,594,733.5z M486,774c24.854,0,45,20.147,45,45
	c0,24.854-20.146,45-45,45c-24.853,0-45-20.146-45-45C441,794.147,461.147,774,486,774z M423,580.5c-22.368,0-40.5-18.132-40.5-40.5
	s18.132-40.5,40.5-40.5s40.5,18.132,40.5,40.5S445.368,580.5,423,580.5z M387,823.5c22.368,0,40.5,18.132,40.5,40.5
	s-18.132,40.5-40.5,40.5s-40.5-18.132-40.5-40.5S364.632,823.5,387,823.5z M342,814.5c-22.368,0-40.5-18.132-40.5-40.5
	s18.132-40.5,40.5-40.5s40.5,18.132,40.5,40.5S364.368,814.5,342,814.5z M373.5,1206c0,22.368-18.132,40.5-40.5,40.5
	s-40.5-18.132-40.5-40.5s18.132-40.5,40.5-40.5S373.5,1183.632,373.5,1206z M414,1273.5c22.368,0,40.5,18.132,40.5,40.5
	s-18.132,40.5-40.5,40.5s-40.5-18.132-40.5-40.5S391.632,1273.5,414,1273.5z M450,1215c-19.883,0-36-16.117-36-36s16.117-36,36-36
	s36,16.117,36,36S469.883,1215,450,1215z M441,990c0-24.853,20.147-45,45-45c24.854,0,45,20.147,45,45c0,24.854-20.146,45-45,45
	C461.147,1035,441,1014.854,441,990z M540,1066.5c22.368,0,40.5,18.132,40.5,40.5s-18.132,40.5-40.5,40.5s-40.5-18.132-40.5-40.5
	S517.632,1066.5,540,1066.5z M567,1228.5c22.368,0,40.5,18.132,40.5,40.5s-18.132,40.5-40.5,40.5s-40.5-18.132-40.5-40.5
	S544.632,1228.5,567,1228.5z M576,940.5c-22.368,0-40.5-18.132-40.5-40.5s18.132-40.5,40.5-40.5s40.5,18.132,40.5,40.5
	S598.368,940.5,576,940.5z M648,931.5c22.368,0,40.5,18.132,40.5,40.5s-18.132,40.5-40.5,40.5s-40.5-18.132-40.5-40.5
	S625.632,931.5,648,931.5z M684,900c-19.883,0-36-16.117-36-36s16.117-36,36-36s36,16.117,36,36S703.883,900,684,900z M684,742.5
	c-22.368,0-40.5-18.132-40.5-40.5s18.132-40.5,40.5-40.5s40.5,18.132,40.5,40.5S706.368,742.5,684,742.5z M720,607.5
	c-22.368,0-40.5-18.132-40.5-40.5s18.132-40.5,40.5-40.5s40.5,18.132,40.5,40.5S742.368,607.5,720,607.5z M792,594
	c24.853,0,45,20.147,45,45s-20.147,45-45,45s-45-20.147-45-45S767.147,594,792,594z M792,922.5c22.368,0,40.5,18.132,40.5,40.5
	s-18.132,40.5-40.5,40.5s-40.5-18.132-40.5-40.5S769.632,922.5,792,922.5z M823.5,720c0-22.368,18.132-40.5,40.5-40.5
	s40.5,18.132,40.5,40.5s-18.132,40.5-40.5,40.5S823.5,742.368,823.5,720z M891,639c0-24.853,20.147-45,45-45s45,20.147,45,45
	s-20.147,45-45,45S891,663.853,891,639z M963,859.5c22.368,0,40.5,18.132,40.5,40.5s-18.132,40.5-40.5,40.5s-40.5-18.132-40.5-40.5
	S940.632,859.5,963,859.5z M1026,1017c19.883,0,36,16.117,36,36s-16.117,36-36,36s-36-16.117-36-36S1006.117,1017,1026,1017z
	 M1053,958.5c-22.368,0-40.5-18.132-40.5-40.5s18.132-40.5,40.5-40.5s40.5,18.132,40.5,40.5S1075.368,958.5,1053,958.5z
	 M1107,1183.5c22.368,0,40.5,18.132,40.5,40.5s-18.132,40.5-40.5,40.5s-40.5-18.132-40.5-40.5S1084.632,1183.5,1107,1183.5z
	 M1134,1098c-24.854,0-45-20.146-45-45c0-24.853,20.146-45,45-45s45,20.147,45,45C1179,1077.854,1158.854,1098,1134,1098z
	 M1138.5,801c0-22.368,18.132-40.5,40.5-40.5s40.5,18.132,40.5,40.5s-18.132,40.5-40.5,40.5S1138.5,823.368,1138.5,801z M1260,954
	c-24.854,0-45-20.146-45-45c0-24.853,20.146-45,45-45s45,20.147,45,45C1305,933.854,1284.854,954,1260,954z M1291.5,1188
	c0,22.368-18.132,40.5-40.5,40.5s-40.5-18.132-40.5-40.5s18.132-40.5,40.5-40.5S1291.5,1165.632,1291.5,1188z M1273.5,756
	c0-22.368,18.132-40.5,40.5-40.5s40.5,18.132,40.5,40.5s-18.132,40.5-40.5,40.5S1273.5,778.368,1273.5,756z M1332,706.5
	c-22.368,0-40.5-18.132-40.5-40.5s18.132-40.5,40.5-40.5s40.5,18.132,40.5,40.5S1354.368,706.5,1332,706.5z M1323,243
	c24.854,0,45,20.147,45,45s-20.146,45-45,45s-45-20.147-45-45S1298.146,243,1323,243z M1251,553.5c22.368,0,40.5,18.132,40.5,40.5
	s-18.132,40.5-40.5,40.5s-40.5-18.132-40.5-40.5S1228.632,553.5,1251,553.5z M1179,544.5c-22.368,0-40.5-18.132-40.5-40.5
	s18.132-40.5,40.5-40.5s40.5,18.132,40.5,40.5S1201.368,544.5,1179,544.5z M1210.5,315c0,22.368-18.132,40.5-40.5,40.5
	s-40.5-18.132-40.5-40.5s18.132-40.5,40.5-40.5S1210.5,292.632,1210.5,315z M1147.5,252c0,22.368-18.132,40.5-40.5,40.5
	s-40.5-18.132-40.5-40.5s18.132-40.5,40.5-40.5S1147.5,229.632,1147.5,252z M1044,148.5c22.368,0,40.5,18.132,40.5,40.5
	s-18.132,40.5-40.5,40.5s-40.5-18.132-40.5-40.5S1021.632,148.5,1044,148.5z M981,211.5c22.368,0,40.5,18.132,40.5,40.5
	s-18.132,40.5-40.5,40.5s-40.5-18.132-40.5-40.5S958.632,211.5,981,211.5z M918,274.5c22.368,0,40.5,18.132,40.5,40.5
	s-18.132,40.5-40.5,40.5s-40.5-18.132-40.5-40.5S895.632,274.5,918,274.5z M886.5,225c0,22.368-18.132,40.5-40.5,40.5
	s-40.5-18.132-40.5-40.5s18.132-40.5,40.5-40.5S886.5,202.632,886.5,225z M783,117c24.853,0,45,20.147,45,45s-20.147,45-45,45
	s-45-20.147-45-45S758.147,117,783,117z M756,225c0,19.883-16.117,36-36,36s-36-16.117-36-36s16.117-36,36-36S756,205.117,756,225z
	 M657,117c24.853,0,45,20.147,45,45s-20.147,45-45,45s-45-20.147-45-45S632.147,117,657,117z M594,184.5
	c22.368,0,40.5,18.132,40.5,40.5s-18.132,40.5-40.5,40.5s-40.5-18.132-40.5-40.5S571.632,184.5,594,184.5z M553.5,342
	c0,22.368-18.132,40.5-40.5,40.5s-40.5-18.132-40.5-40.5s18.132-40.5,40.5-40.5S553.5,319.632,553.5,342z M450,207
	c24.853,0,45,20.147,45,45s-20.147,45-45,45s-45-20.147-45-45S425.147,207,450,207z M423,319.5c22.368,0,40.5,18.132,40.5,40.5
	s-18.132,40.5-40.5,40.5s-40.5-18.132-40.5-40.5S400.632,319.5,423,319.5z M387,409.5c22.368,0,40.5,18.132,40.5,40.5
	s-18.132,40.5-40.5,40.5s-40.5-18.132-40.5-40.5S364.632,409.5,387,409.5z M351,486c0,24.853-20.147,45-45,45s-45-20.147-45-45
	s20.147-45,45-45S351,461.147,351,486z M288,207c24.853,0,45,20.147,45,45s-20.147,45-45,45s-45-20.147-45-45S263.147,207,288,207z
	 M288,639c24.853,0,45,20.147,45,45s-20.147,45-45,45s-45-20.147-45-45S263.147,639,288,639z M243,1080c0-24.853,20.147-45,45-45
	s45,20.147,45,45c0,24.853-20.147,45-45,45S243,1104.853,243,1080z M666,1818c0,9.941-8.059,18-18,18H306c-9.941,0-18-8.059-18-18
	v-270c0-9.941,8.059-18,18-18h342c9.941,0,18,8.059,18,18V1818z M702,1314c-24.853,0-45-20.146-45-45s20.147-45,45-45
	c24.854,0,45,20.146,45,45S726.854,1314,702,1314z M729,1075.5c-22.368,0-40.5-18.132-40.5-40.5s18.132-40.5,40.5-40.5
	s40.5,18.132,40.5,40.5S751.368,1075.5,729,1075.5z M828,1368c-19.883,0-36-16.117-36-36s16.117-36,36-36s36,16.117,36,36
	S847.883,1368,828,1368z M828,1264.5c-22.368,0-40.5-18.132-40.5-40.5s18.132-40.5,40.5-40.5s40.5,18.132,40.5,40.5
	S850.368,1264.5,828,1264.5z M837,1125c-24.853,0-45-20.146-45-45c0-24.853,20.147-45,45-45c24.854,0,45,20.147,45,45
	C882,1104.854,861.854,1125,837,1125z M841.5,864c0-22.368,18.132-40.5,40.5-40.5s40.5,18.132,40.5,40.5s-18.132,40.5-40.5,40.5
	S841.5,886.368,841.5,864z M972,1980c-33.299,0-62.372-18.086-77.938-44.969l0.029-0.017c-0.771-1.327-1.219-2.863-1.219-4.508
	c0-4.971,4.029-9,9-9c3.335,0,6.239,1.818,7.794,4.514l0.002-0.001C922.122,1947.523,945.363,1962,972,1962c4.97,0,9,4.029,9,9
	S976.97,1980,972,1980z M972,1899c-4.971,0-9-4.029-9-9s4.029-9,9-9c4.97,0,9,4.029,9,9S976.97,1899,972,1899z M981,1336.5
	c-22.368,0-40.5-18.132-40.5-40.5s18.132-40.5,40.5-40.5s40.5,18.132,40.5,40.5S1003.368,1336.5,981,1336.5z M1008,1228.5
	c-22.368,0-40.5-18.132-40.5-40.5s18.132-40.5,40.5-40.5s40.5,18.132,40.5,40.5S1030.368,1228.5,1008,1228.5z M1080,1926
	c-19.883,0-36-16.117-36-36s16.117-36,36-36s36,16.117,36,36S1099.883,1926,1080,1926z M1152,2083.5
	c-17.397,0-31.5-14.103-31.5-31.5s14.103-31.5,31.5-31.5s31.5,14.103,31.5,31.5S1169.397,2083.5,1152,2083.5z M1170,1287
	c0-19.883,16.117-36,36-36s36,16.117,36,36s-16.117,36-36,36S1170,1306.883,1170,1287z M1260,1480.5
	c-22.368,0-40.5-18.132-40.5-40.5s18.132-40.5,40.5-40.5s40.5,18.132,40.5,40.5S1282.368,1480.5,1260,1480.5z M1332,1327.5
	c-22.368,0-40.5-18.132-40.5-40.5s18.132-40.5,40.5-40.5s40.5,18.132,40.5,40.5S1354.368,1327.5,1332,1327.5z M1377,1242
	c-24.854,0-45-20.146-45-45s20.146-45,45-45s45,20.146,45,45S1401.854,1242,1377,1242z M1377,1134c-24.854,0-45-20.146-45-45
	c0-24.853,20.146-45,45-45s45,20.147,45,45C1422,1113.854,1401.854,1134,1377,1134z"/>
</svg>
