<?xml version="1.0" encoding="utf-8"?>
<!-- Generator: Adobe Illustrator 15.0.0, SVG Export Plug-In . SVG Version: 6.00 Build 0)  -->
<!DOCTYPE svg PUBLIC "-//W3C//DTD SVG 1.1//EN" "http://www.w3.org/Graphics/SVG/1.1/DTD/svg11.dtd">
<svg version="1.1" id="Layer_1" xmlns="http://www.w3.org/2000/svg" xmlns:xlink="http://www.w3.org/1999/xlink" x="0px" y="0px"
	 width="1674px" height="2196px" viewBox="0 0 1674 2196" enable-background="new 0 0 1674 2196" xml:space="preserve">
<path fill="#7E421C" stroke="#000000" stroke-width="0.8537" stroke-miterlimit="10" d="M0,0v180h108c9.941,0,18,8.059,18,18v1800
	c0,9.941-8.059,18-18,18H0v180h1674v-180h-108c-9.941,0-18-8.059-18-18V198c0-9.941,8.059-18,18-18h108V0H0z M1413,585
	c0,24.853-20.147,45-45,45s-45-20.147-45-45s20.147-45,45-45S1413,560.147,1413,585z M513,535.5c22.367,0,40.5,18.133,40.5,40.5
	s-18.133,40.5-40.5,40.5s-40.5-18.133-40.5-40.5S490.633,535.5,513,535.5z M481.5,450c0-17.396,14.104-31.5,31.5-31.5
	s31.5,14.104,31.5,31.5s-14.104,31.5-31.5,31.5S481.5,467.396,481.5,450z M1107,418.5c-22.367,0-40.5-18.133-40.5-40.5
	c0-22.368,18.133-40.5,40.5-40.5s40.5,18.132,40.5,40.5C1147.5,400.367,1129.367,418.5,1107,418.5z M1147.5,729
	c0,22.367-18.133,40.5-40.5,40.5s-40.5-18.133-40.5-40.5s18.133-40.5,40.5-40.5S1147.5,706.633,1147.5,729z M1044,346.5
	c-17.396,0-31.5-14.103-31.5-31.5s14.104-31.5,31.5-31.5s31.5,14.103,31.5,31.5S1061.396,346.5,1044,346.5z M1044,400.5
	c22.367,0,40.5,18.133,40.5,40.5s-18.133,40.5-40.5,40.5s-40.5-18.133-40.5-40.5S1021.633,400.5,1044,400.5z M1026,522
	c24.853,0,45,20.147,45,45s-20.147,45-45,45s-45-20.147-45-45S1001.147,522,1026,522z M936,531c-24.853,0-45-20.147-45-45
	s20.147-45,45-45s45,20.147,45,45S960.853,531,936,531z M864,526.5c17.396,0,31.5,14.104,31.5,31.5s-14.104,31.5-31.5,31.5
	s-31.5-14.104-31.5-31.5S846.604,526.5,864,526.5z M792,531c-24.853,0-45-20.147-45-45s20.147-45,45-45s45,20.147,45,45
	S816.853,531,792,531z M864,454.5c-22.367,0-40.5-18.133-40.5-40.5c0-22.368,18.133-40.5,40.5-40.5s40.5,18.132,40.5,40.5
	C904.5,436.367,886.367,454.5,864,454.5z M783,333c-24.853,0-45-20.147-45-45s20.147-45,45-45s45,20.147,45,45S807.853,333,783,333z
	 M760.5,360c0,22.368-18.133,40.5-40.5,40.5s-40.5-18.132-40.5-40.5s18.133-40.5,40.5-40.5S760.5,337.632,760.5,360z M657,333
	c-24.853,0-45-20.147-45-45s20.147-45,45-45s45,20.147,45,45S681.853,333,657,333z M639,409.5c22.367,0,40.5,18.133,40.5,40.5
	s-18.133,40.5-40.5,40.5s-40.5-18.133-40.5-40.5S616.633,409.5,639,409.5z M603,499.5c22.367,0,40.5,18.133,40.5,40.5
	s-18.133,40.5-40.5,40.5s-40.5-18.133-40.5-40.5S580.633,499.5,603,499.5z M594,733.5c22.367,0,40.5,18.133,40.5,40.5
	s-18.133,40.5-40.5,40.5s-40.5-18.133-40.5-40.5S571.633,733.5,594,733.5z M486,774c24.853,0,45,20.147,45,45s-20.147,45-45,45
	s-45-20.147-45-45S461.147,774,486,774z M423,580.5c-22.367,0-40.5-18.133-40.5-40.5s18.133-40.5,40.5-40.5s40.5,18.133,40.5,40.5
	S445.367,580.5,423,580.5z M387,823.5c22.367,0,40.5,18.133,40.5,40.5s-18.133,40.5-40.5,40.5s-40.5-18.133-40.5-40.5
	S364.633,823.5,387,823.5z M342,814.5c-22.367,0-40.5-18.133-40.5-40.5s18.133-40.5,40.5-40.5s40.5,18.133,40.5,40.5
	S364.367,814.5,342,814.5z M373.5,1206c0,22.367-18.133,40.5-40.5,40.5s-40.5-18.133-40.5-40.5s18.133-40.5,40.5-40.5
	S373.5,1183.633,373.5,1206z M414,1273.5c22.367,0,40.5,18.133,40.5,40.5s-18.133,40.5-40.5,40.5s-40.5-18.133-40.5-40.5
	S391.633,1273.5,414,1273.5z M450,1210.5c-17.396,0-31.5-14.104-31.5-31.5s14.104-31.5,31.5-31.5s31.5,14.104,31.5,31.5
	S467.396,1210.5,450,1210.5z M441,990c0-24.853,20.147-45,45-45s45,20.147,45,45s-20.147,45-45,45S441,1014.853,441,990z
	 M540,1066.5c22.367,0,40.5,18.133,40.5,40.5s-18.133,40.5-40.5,40.5s-40.5-18.133-40.5-40.5S517.633,1066.5,540,1066.5z
	 M567,1228.5c22.367,0,40.5,18.133,40.5,40.5s-18.133,40.5-40.5,40.5s-40.5-18.133-40.5-40.5S544.633,1228.5,567,1228.5z M576,940.5
	c-22.367,0-40.5-18.133-40.5-40.5s18.133-40.5,40.5-40.5s40.5,18.133,40.5,40.5S598.367,940.5,576,940.5z M648,931.5
	c22.367,0,40.5,18.133,40.5,40.5s-18.133,40.5-40.5,40.5s-40.5-18.133-40.5-40.5S625.633,931.5,648,931.5z M684,895.5
	c-17.396,0-31.5-14.104-31.5-31.5s14.104-31.5,31.5-31.5s31.5,14.104,31.5,31.5S701.396,895.5,684,895.5z M684,742.5
	c-22.367,0-40.5-18.133-40.5-40.5s18.133-40.5,40.5-40.5s40.5,18.133,40.5,40.5S706.367,742.5,684,742.5z M720,607.5
	c-22.367,0-40.5-18.133-40.5-40.5s18.133-40.5,40.5-40.5s40.5,18.133,40.5,40.5S742.367,607.5,720,607.5z M792,594
	c24.853,0,45,20.147,45,45s-20.147,45-45,45s-45-20.147-45-45S767.147,594,792,594z M792,922.5c22.367,0,40.5,18.133,40.5,40.5
	s-18.133,40.5-40.5,40.5s-40.5-18.133-40.5-40.5S769.633,922.5,792,922.5z M823.5,720c0-22.367,18.133-40.5,40.5-40.5
	s40.5,18.133,40.5,40.5s-18.133,40.5-40.5,40.5S823.5,742.367,823.5,720z M891,639c0-24.853,20.147-45,45-45s45,20.147,45,45
	s-20.147,45-45,45S891,663.853,891,639z M963,859.5c22.367,0,40.5,18.133,40.5,40.5s-18.133,40.5-40.5,40.5s-40.5-18.133-40.5-40.5
	S940.633,859.5,963,859.5z M985.5,657c0-22.367,18.133-40.5,40.5-40.5s40.5,18.133,40.5,40.5s-18.133,40.5-40.5,40.5
	S985.5,679.367,985.5,657z M1053,877.5c22.367,0,40.5,18.133,40.5,40.5s-18.133,40.5-40.5,40.5s-40.5-18.133-40.5-40.5
	S1030.633,877.5,1053,877.5z M1134,1008c24.853,0,45,20.147,45,45s-20.147,45-45,45s-45-20.147-45-45S1109.147,1008,1134,1008z
	 M1138.5,801c0-22.367,18.133-40.5,40.5-40.5s40.5,18.133,40.5,40.5s-18.133,40.5-40.5,40.5S1138.5,823.367,1138.5,801z M1147.5,666
	c0-17.396,14.104-31.5,31.5-31.5s31.5,14.104,31.5,31.5s-14.104,31.5-31.5,31.5S1147.5,683.396,1147.5,666z M1260,954
	c-24.853,0-45-20.147-45-45s20.147-45,45-45s45,20.147,45,45S1284.853,954,1260,954z M1291.5,1188c0,22.367-18.133,40.5-40.5,40.5
	s-40.5-18.133-40.5-40.5s18.133-40.5,40.5-40.5S1291.5,1165.633,1291.5,1188z M1273.5,756c0-22.367,18.133-40.5,40.5-40.5
	s40.5,18.133,40.5,40.5s-18.133,40.5-40.5,40.5S1273.5,778.367,1273.5,756z M1332,706.5c-22.367,0-40.5-18.133-40.5-40.5
	s18.133-40.5,40.5-40.5s40.5,18.133,40.5,40.5S1354.367,706.5,1332,706.5z M1323,243c24.853,0,45,20.147,45,45s-20.147,45-45,45
	s-45-20.147-45-45S1298.147,243,1323,243z M1251,553.5c22.367,0,40.5,18.133,40.5,40.5s-18.133,40.5-40.5,40.5
	s-40.5-18.133-40.5-40.5S1228.633,553.5,1251,553.5z M1179,544.5c-22.367,0-40.5-18.133-40.5-40.5s18.133-40.5,40.5-40.5
	s40.5,18.133,40.5,40.5S1201.367,544.5,1179,544.5z M1210.5,315c0,22.368-18.133,40.5-40.5,40.5s-40.5-18.132-40.5-40.5
	s18.133-40.5,40.5-40.5S1210.5,292.632,1210.5,315z M1147.5,252c0,22.368-18.133,40.5-40.5,40.5s-40.5-18.132-40.5-40.5
	s18.133-40.5,40.5-40.5S1147.5,229.632,1147.5,252z M1044,148.5c22.367,0,40.5,18.132,40.5,40.5s-18.133,40.5-40.5,40.5
	s-40.5-18.132-40.5-40.5S1021.633,148.5,1044,148.5z M981,211.5c22.367,0,40.5,18.132,40.5,40.5s-18.133,40.5-40.5,40.5
	s-40.5-18.132-40.5-40.5S958.633,211.5,981,211.5z M918,274.5c22.367,0,40.5,18.132,40.5,40.5s-18.133,40.5-40.5,40.5
	s-40.5-18.132-40.5-40.5S895.633,274.5,918,274.5z M886.5,225c0,22.368-18.133,40.5-40.5,40.5s-40.5-18.132-40.5-40.5
	s18.133-40.5,40.5-40.5S886.5,202.632,886.5,225z M783,117c24.853,0,45,20.147,45,45s-20.147,45-45,45s-45-20.147-45-45
	S758.147,117,783,117z M751.5,225c0,17.397-14.104,31.5-31.5,31.5s-31.5-14.103-31.5-31.5s14.104-31.5,31.5-31.5
	S751.5,207.603,751.5,225z M657,117c24.853,0,45,20.147,45,45s-20.147,45-45,45s-45-20.147-45-45S632.147,117,657,117z M594,184.5
	c22.367,0,40.5,18.132,40.5,40.5s-18.133,40.5-40.5,40.5s-40.5-18.132-40.5-40.5S571.633,184.5,594,184.5z M553.5,342
	c0,22.368-18.133,40.5-40.5,40.5s-40.5-18.132-40.5-40.5s18.133-40.5,40.5-40.5S553.5,319.632,553.5,342z M450,207
	c24.853,0,45,20.147,45,45s-20.147,45-45,45s-45-20.147-45-45S425.147,207,450,207z M423,319.5c22.367,0,40.5,18.132,40.5,40.5
	s-18.133,40.5-40.5,40.5s-40.5-18.132-40.5-40.5S400.633,319.5,423,319.5z M387,409.5c22.367,0,40.5,18.133,40.5,40.5
	s-18.133,40.5-40.5,40.5s-40.5-18.133-40.5-40.5S364.633,409.5,387,409.5z M351,486c0,24.853-20.147,45-45,45s-45-20.147-45-45
	s20.147-45,45-45S351,461.147,351,486z M288,207c24.853,0,45,20.147,45,45s-20.147,45-45,45s-45-20.147-45-45S263.147,207,288,207z
	 M288,639c24.853,0,45,20.147,45,45s-20.147,45-45,45s-45-20.147-45-45S263.147,639,288,639z M243,1080c0-24.853,20.147-45,45-45
	s45,20.147,45,45s-20.147,45-45,45S243,1104.853,243,1080z M666,1818c0,9.941-8.059,18-18,18H306c-9.941,0-18-8.059-18-18v-270
	c0-9.941,8.059-18,18-18h342c9.941,0,18,8.059,18,18V1818z M702,1314c-24.853,0-45-20.147-45-45s20.147-45,45-45s45,20.147,45,45
	S726.853,1314,702,1314z M729,1075.5c-22.367,0-40.5-18.133-40.5-40.5s18.133-40.5,40.5-40.5s40.5,18.133,40.5,40.5
	S751.367,1075.5,729,1075.5z M828,1363.5c-17.396,0-31.5-14.104-31.5-31.5s14.104-31.5,31.5-31.5s31.5,14.104,31.5,31.5
	S845.396,1363.5,828,1363.5z M828,1264.5c-22.367,0-40.5-18.133-40.5-40.5s18.133-40.5,40.5-40.5s40.5,18.133,40.5,40.5
	S850.367,1264.5,828,1264.5z M837,1125c-24.853,0-45-20.147-45-45s20.147-45,45-45s45,20.147,45,45S861.853,1125,837,1125z
	 M841.5,864c0-22.367,18.133-40.5,40.5-40.5s40.5,18.133,40.5,40.5s-18.133,40.5-40.5,40.5S841.5,886.367,841.5,864z M972,1980
	c-33.299,0-62.372-18.086-77.938-44.966l0.028-0.02c-0.771-1.327-1.219-2.861-1.219-4.508c0-4.971,4.028-9,9-9
	c3.335,0,6.239,1.821,7.794,4.515l0.002-0.002C922.122,1947.523,945.363,1962,972,1962c4.97,0,9,4.029,9,9S976.97,1980,972,1980z
	 M972,1899c-4.971,0-9-4.029-9-9s4.029-9,9-9s9,4.029,9,9S976.971,1899,972,1899z M981,1336.5c-22.367,0-40.5-18.133-40.5-40.5
	s18.133-40.5,40.5-40.5s40.5,18.133,40.5,40.5S1003.367,1336.5,981,1336.5z M1008,1228.5c-22.367,0-40.5-18.133-40.5-40.5
	s18.133-40.5,40.5-40.5s40.5,18.133,40.5,40.5S1030.367,1228.5,1008,1228.5z M1026,1084.5c-17.396,0-31.5-14.104-31.5-31.5
	s14.104-31.5,31.5-31.5s31.5,14.104,31.5,31.5S1043.396,1084.5,1026,1084.5z M1066.5,1224c0-22.367,18.133-40.5,40.5-40.5
	s40.5,18.133,40.5,40.5s-18.133,40.5-40.5,40.5S1066.5,1246.367,1066.5,1224z M1080,1890c0-19.882,16.118-36,36-36s36,16.118,36,36
	s-16.118,36-36,36S1080,1909.882,1080,1890z M1152,2083.5c-17.396,0-31.5-14.104-31.5-31.5s14.104-31.5,31.5-31.5
	s31.5,14.104,31.5,31.5S1169.396,2083.5,1152,2083.5z M1174.5,1287c0-17.396,14.104-31.5,31.5-31.5s31.5,14.104,31.5,31.5
	s-14.104,31.5-31.5,31.5S1174.5,1304.396,1174.5,1287z M1260,1480.5c-22.367,0-40.5-18.133-40.5-40.5s18.133-40.5,40.5-40.5
	s40.5,18.133,40.5,40.5S1282.367,1480.5,1260,1480.5z M1332,1327.5c-22.367,0-40.5-18.133-40.5-40.5s18.133-40.5,40.5-40.5
	s40.5,18.133,40.5,40.5S1354.367,1327.5,1332,1327.5z M1377,1242c-24.853,0-45-20.147-45-45s20.147-45,45-45s45,20.147,45,45
	S1401.853,1242,1377,1242z M1377,1134c-24.853,0-45-20.147-45-45s20.147-45,45-45s45,20.147,45,45S1401.853,1134,1377,1134z"/>
</svg>
