<?xml version="1.0" encoding="utf-8"?>
<!-- Generator: Adobe Illustrator 15.0.0, SVG Export Plug-In . SVG Version: 6.00 Build 0)  -->
<!DOCTYPE svg PUBLIC "-//W3C//DTD SVG 1.1//EN" "http://www.w3.org/Graphics/SVG/1.1/DTD/svg11.dtd">
<svg version="1.1" id="Layer_1" xmlns="http://www.w3.org/2000/svg" xmlns:xlink="http://www.w3.org/1999/xlink" x="0px" y="0px"
	 width="1674px" height="2196px" viewBox="0 0 1674 2196" enable-background="new 0 0 1674 2196" xml:space="preserve">
<rect fill="#7E421C" stroke="#000000" stroke-width="0.8537" stroke-miterlimit="10" width="1674" height="2196"/>
<circle fill="#ED1F24" stroke="#000000" stroke-width="1.1793" stroke-miterlimit="10" cx="288" cy="252" r="45"/>
<circle fill="#ED1F24" stroke="#000000" stroke-width="1.1793" stroke-miterlimit="10" cx="450" cy="252" r="45"/>
<circle fill="#ED1F24" stroke="#000000" stroke-width="1.1793" stroke-miterlimit="10" cx="657" cy="162" r="45"/>
<circle fill="#ED1F24" stroke="#000000" stroke-width="1.1793" stroke-miterlimit="10" cx="783" cy="162" r="45"/>
<circle fill="#ED1F24" stroke="#000000" stroke-width="1.1793" stroke-miterlimit="10" cx="657" cy="288" r="45"/>
<circle fill="#ED1F24" stroke="#000000" stroke-width="1.1793" stroke-miterlimit="10" cx="783" cy="288" r="45"/>
<circle fill="#ED1F24" stroke="#000000" stroke-width="1.1793" stroke-miterlimit="10" cx="1323" cy="288" r="45"/>
<circle fill="#ED1F24" stroke="#000000" stroke-width="1.1793" stroke-miterlimit="10" cx="306" cy="486" r="45"/>
<circle fill="#ED1F24" stroke="#000000" stroke-width="1.1793" stroke-miterlimit="10" cx="288" cy="684" r="45"/>
<circle fill="#ED1F24" stroke="#000000" stroke-width="1.1793" stroke-miterlimit="10" cx="792" cy="486" r="45"/>
<circle fill="#ED1F24" stroke="#000000" stroke-width="1.1793" stroke-miterlimit="10" cx="936" cy="486" r="45"/>
<circle fill="#ED1F24" stroke="#000000" stroke-width="1.1793" stroke-miterlimit="10" cx="792" cy="639" r="45"/>
<circle fill="#ED1F24" stroke="#000000" stroke-width="1.1793" stroke-miterlimit="10" cx="936" cy="639" r="45"/>
<circle fill="#ED1F24" stroke="#000000" stroke-width="1.1793" stroke-miterlimit="10" cx="1026" cy="567" r="45"/>
<circle fill="#ED1F24" stroke="#000000" stroke-width="1.1793" stroke-miterlimit="10" cx="1368" cy="585" r="45"/>
<circle fill="#ED1F24" stroke="#000000" stroke-width="1.1793" stroke-miterlimit="10" cx="288" cy="1080" r="45"/>
<circle fill="#ED1F24" stroke="#000000" stroke-width="1.1793" stroke-miterlimit="10" cx="837" cy="1080" r="45"/>
<circle fill="#ED1F24" stroke="#000000" stroke-width="1.1793" stroke-miterlimit="10" cx="1377" cy="1089" r="45"/>
<circle fill="#ED1F24" stroke="#000000" stroke-width="1.1793" stroke-miterlimit="10" cx="486" cy="990" r="45"/>
<circle fill="#ED1F24" stroke="#000000" stroke-width="1.1793" stroke-miterlimit="10" cx="486" cy="819" r="45"/>
<circle fill="#ED1F24" stroke="#000000" stroke-width="1.1793" stroke-miterlimit="10" cx="1260" cy="909" r="45"/>
<circle fill="#ED1F24" stroke="#000000" stroke-width="1.1793" stroke-miterlimit="10" cx="1377" cy="1197" r="45"/>
<circle fill="#ED1F24" stroke="#000000" stroke-width="1.1793" stroke-miterlimit="10" cx="702" cy="1269" r="45"/>
<circle fill="#F6EB13" stroke="#000000" stroke-width="1.0614" stroke-miterlimit="10" cx="1260" cy="1440" r="40.5"/>
<circle fill="#69BD45" stroke="#000000" stroke-width="0.9434" stroke-miterlimit="10" cx="828" cy="1332" r="36"/>
<circle fill="#69BD45" stroke="#000000" stroke-width="0.9434" stroke-miterlimit="10" cx="1206" cy="1287" r="36"/>
<circle fill="#69BD45" stroke="#000000" stroke-width="0.9434" stroke-miterlimit="10" cx="450" cy="1179" r="36"/>
<circle fill="#69BD45" stroke="#000000" stroke-width="0.9434" stroke-miterlimit="10" cx="1026" cy="1053" r="36"/>
<circle fill="#69BD45" stroke="#000000" stroke-width="0.9434" stroke-miterlimit="10" cx="684" cy="864" r="36"/>
<circle fill="#69BD45" stroke="#000000" stroke-width="0.9434" stroke-miterlimit="10" cx="1179" cy="666" r="36"/>
<circle fill="#69BD45" stroke="#000000" stroke-width="0.9434" stroke-miterlimit="10" cx="864" cy="558" r="36"/>
<circle fill="#69BD45" stroke="#000000" stroke-width="0.9434" stroke-miterlimit="10" cx="513" cy="450" r="36"/>
<circle fill="#69BD45" stroke="#000000" stroke-width="0.9434" stroke-miterlimit="10" cx="1044" cy="315" r="36"/>
<circle fill="#69BD45" stroke="#000000" stroke-width="0.9434" stroke-miterlimit="10" cx="720" cy="225" r="36"/>
<circle fill="#F6EB13" stroke="#000000" stroke-width="1.0614" stroke-miterlimit="10" cx="1332" cy="1287" r="40.5"/>
<circle fill="#F6EB13" stroke="#000000" stroke-width="1.0614" stroke-miterlimit="10" cx="594" cy="225" r="40.5"/>
<circle fill="#F6EB13" stroke="#000000" stroke-width="1.0614" stroke-miterlimit="10" cx="846" cy="225" r="40.5"/>
<circle fill="#F6EB13" stroke="#000000" stroke-width="1.0614" stroke-miterlimit="10" cx="720" cy="360" r="40.5"/>
<circle fill="#F6EB13" stroke="#000000" stroke-width="1.0614" stroke-miterlimit="10" cx="513" cy="342" r="40.5"/>
<circle fill="#F6EB13" stroke="#000000" stroke-width="1.0614" stroke-miterlimit="10" cx="423" cy="360" r="40.5"/>
<circle fill="#F6EB13" stroke="#000000" stroke-width="1.0614" stroke-miterlimit="10" cx="387" cy="450" r="40.5"/>
<circle fill="#F6EB13" stroke="#000000" stroke-width="1.0614" stroke-miterlimit="10" cx="423" cy="540" r="40.5"/>
<circle fill="#F6EB13" stroke="#000000" stroke-width="1.0614" stroke-miterlimit="10" cx="513" cy="576" r="40.5"/>
<circle fill="#F6EB13" stroke="#000000" stroke-width="1.0614" stroke-miterlimit="10" cx="603" cy="540" r="40.5"/>
<circle fill="#F6EB13" stroke="#000000" stroke-width="1.0614" stroke-miterlimit="10" cx="639" cy="450" r="40.5"/>
<circle fill="#F6EB13" stroke="#000000" stroke-width="1.0614" stroke-miterlimit="10" cx="864" cy="414" r="40.5"/>
<circle fill="#F6EB13" stroke="#000000" stroke-width="1.0614" stroke-miterlimit="10" cx="720" cy="567" r="40.5"/>
<circle fill="#F6EB13" stroke="#000000" stroke-width="1.0614" stroke-miterlimit="10" cx="918" cy="315" r="40.5"/>
<circle fill="#F6EB13" stroke="#000000" stroke-width="1.0614" stroke-miterlimit="10" cx="981" cy="252" r="40.5"/>
<circle fill="#F6EB13" stroke="#000000" stroke-width="1.0614" stroke-miterlimit="10" cx="1044" cy="189" r="40.5"/>
<circle fill="#F6EB13" stroke="#000000" stroke-width="1.0614" stroke-miterlimit="10" cx="1107" cy="252" r="40.5"/>
<circle fill="#F6EB13" stroke="#000000" stroke-width="1.0614" stroke-miterlimit="10" cx="1170" cy="315" r="40.5"/>
<circle fill="#F6EB13" stroke="#000000" stroke-width="1.0614" stroke-miterlimit="10" cx="1107" cy="378" r="40.5"/>
<circle fill="#F6EB13" stroke="#000000" stroke-width="1.0614" stroke-miterlimit="10" cx="1044" cy="441" r="40.5"/>
<circle fill="#F6EB13" stroke="#000000" stroke-width="1.0614" stroke-miterlimit="10" cx="1179" cy="504" r="40.5"/>
<circle fill="#F6EB13" stroke="#000000" stroke-width="1.0614" stroke-miterlimit="10" cx="1026" cy="657" r="40.5"/>
<circle fill="#F6EB13" stroke="#000000" stroke-width="1.0614" stroke-miterlimit="10" cx="1251" cy="594" r="40.5"/>
<circle fill="#F6EB13" stroke="#000000" stroke-width="1.0614" stroke-miterlimit="10" cx="1332" cy="666" r="40.5"/>
<circle fill="#F6EB13" stroke="#000000" stroke-width="1.0614" stroke-miterlimit="10" cx="1314" cy="756" r="40.5"/>
<circle fill="#F6EB13" stroke="#000000" stroke-width="1.0614" stroke-miterlimit="10" cx="684" cy="702" r="40.5"/>
<circle fill="#F6EB13" stroke="#000000" stroke-width="1.0614" stroke-miterlimit="10" cx="864" cy="720" r="40.5"/>
<circle fill="#F6EB13" stroke="#000000" stroke-width="1.0614" stroke-miterlimit="10" cx="342" cy="774" r="40.5"/>
<circle fill="#F6EB13" stroke="#000000" stroke-width="1.0614" stroke-miterlimit="10" cx="387" cy="864" r="40.5"/>
<circle fill="#F6EB13" stroke="#000000" stroke-width="1.0614" stroke-miterlimit="10" cx="594" cy="774" r="40.5"/>
<circle fill="#F6EB13" stroke="#000000" stroke-width="1.0614" stroke-miterlimit="10" cx="576" cy="900" r="40.5"/>
<circle fill="#F6EB13" stroke="#000000" stroke-width="1.0614" stroke-miterlimit="10" cx="648" cy="972" r="40.5"/>
<circle fill="#F6EB13" stroke="#000000" stroke-width="1.0614" stroke-miterlimit="10" cx="729" cy="1035" r="40.5"/>
<circle fill="#F6EB13" stroke="#000000" stroke-width="1.0614" stroke-miterlimit="10" cx="792" cy="963" r="40.5"/>
<circle fill="#F6EB13" stroke="#000000" stroke-width="1.0614" stroke-miterlimit="10" cx="540" cy="1107" r="40.5"/>
<circle fill="#F6EB13" stroke="#000000" stroke-width="1.0614" stroke-miterlimit="10" cx="882" cy="864" r="40.5"/>
<circle fill="#F6EB13" stroke="#000000" stroke-width="1.0614" stroke-miterlimit="10" cx="963" cy="900" r="40.5"/>
<circle fill="#F6EB13" stroke="#000000" stroke-width="1.0614" stroke-miterlimit="10" cx="1053" cy="918" r="40.5"/>
<circle fill="#F6EB13" stroke="#000000" stroke-width="1.0614" stroke-miterlimit="10" cx="1107" cy="729" r="40.5"/>
<circle fill="#F6EB13" stroke="#000000" stroke-width="1.0614" stroke-miterlimit="10" cx="1179" cy="801" r="40.5"/>
<circle fill="#F6EB13" stroke="#000000" stroke-width="1.0614" stroke-miterlimit="10" cx="1251" cy="1188" r="40.5"/>
<circle fill="#F6EB13" stroke="#000000" stroke-width="1.0614" stroke-miterlimit="10" cx="1107" cy="1224" r="40.5"/>
<circle fill="#F6EB13" stroke="#000000" stroke-width="1.0614" stroke-miterlimit="10" cx="1008" cy="1188" r="40.5"/>
<circle fill="#F6EB13" stroke="#000000" stroke-width="1.0614" stroke-miterlimit="10" cx="981" cy="1296" r="40.5"/>
<circle fill="#F6EB13" stroke="#000000" stroke-width="1.0614" stroke-miterlimit="10" cx="828" cy="1224" r="40.5"/>
<circle fill="#F6EB13" stroke="#000000" stroke-width="1.0614" stroke-miterlimit="10" cx="567" cy="1269" r="40.5"/>
<circle fill="#F6EB13" stroke="#000000" stroke-width="1.0614" stroke-miterlimit="10" cx="414" cy="1314" r="40.5"/>
<circle fill="#F6EB13" stroke="#000000" stroke-width="1.0614" stroke-miterlimit="10" cx="333" cy="1206" r="40.5"/>
<circle fill="#ED1F24" stroke="#000000" stroke-width="1.1793" stroke-miterlimit="10" cx="1134" cy="1053" r="45"/>
<circle fill="#69BD45" stroke="#000000" stroke-width="0.9434" stroke-miterlimit="10" cx="1080" cy="1890" r="36"/>
<circle fill="#3953A4" stroke="#000000" stroke-width="0.8255" stroke-miterlimit="10" cx="1152" cy="2052" r="31.5"/>
<path fill="#B9529F" stroke="#000000" stroke-width="0.9746" stroke-miterlimit="10" d="M648,1530H306c-9.941,0-18,8.059-18,18v270
	c0,9.941,8.059,18,18,18h342c9.941,0,18-8.059,18-18v-270C666,1538.059,657.941,1530,648,1530z"/>
<circle fill="#B9529F" stroke="#000000" stroke-width="1.5371" stroke-miterlimit="10" cx="972" cy="1890" r="9"/>
<path fill="#B9529F" stroke="#000000" stroke-width="1.5371" stroke-miterlimit="10" d="M972,1962
	c-26.637,0-49.878-14.477-62.332-35.98l-0.002,0.001c-1.555-2.695-4.459-4.514-7.794-4.514c-4.971,0-9,4.029-9,9
	c0,1.645,0.448,3.181,1.219,4.508l-0.029,0.017C909.628,1961.914,938.701,1980,972,1980c4.97,0,9-4.029,9-9S976.97,1962,972,1962z"
	/>
<path fill="#B9529F" stroke="#000000" stroke-width="0.8537" stroke-miterlimit="10" d="M108,180H0v18v1800v18h108
	c9.941,0,18-8.059,18-18V198C126,188.059,117.941,180,108,180z"/>
<path fill="#B9529F" stroke="#000000" stroke-width="0.8537" stroke-miterlimit="10" d="M1566,2016h108v-18V198v-18h-108
	c-9.941,0-18,8.059-18,18v1800C1548,2007.941,1556.059,2016,1566,2016z"/>
</svg>
